<?xml version="1.0" encoding="utf-8"?>
<!-- Generator: Adobe Illustrator 19.1.0, SVG Export Plug-In . SVG Version: 6.00 Build 0)  -->
<svg version="1.1" id="Layer_1" xmlns="http://www.w3.org/2000/svg" xmlns:xlink="http://www.w3.org/1999/xlink" x="0px" y="0px"
	 viewBox="-19 78 159.3 45" style="enable-background:new -19 78 159.3 45;" xml:space="preserve">
<style type="text/css">
	.st0{fill:#EE1D3E;}
</style>
<g>
	<g>
		<path class="st0" d="M14.8,87.4C8.8,87.4,4,92.3,4,98.2c0,6,4.9,10.8,10.8,10.8c6,0,10.8-4.9,10.8-10.8
			C25.7,92.3,20.8,87.4,14.8,87.4z M14.8,103c-2.6,0-4.7-2.1-4.7-4.7c0-2.6,2.1-4.7,4.7-4.7s4.7,2.1,4.7,4.7
			C19.5,100.9,17.4,103,14.8,103z M2.6,123c-2.6,0-4.7-2.1-4.7-4.7c0-2.6,2.1-4.7,4.7-4.7s4.7,2.1,4.7,4.7
			C7.3,120.9,5.2,123,2.6,123z"/>
		<g>
			<path fill="#FFFFFF" d="M0.4,105.5c-2,2.3-5,3.6-8.2,3.6c-5.8,0-11.2-4.2-11.2-10.9c0-5.8,4.5-10.8,10.7-10.8c3.5,0,6.1,1.4,7.9,3.2L-2,92.5
				c-1.5-1.5-3.6-2.6-6.3-2.6c-4.4,0-8.2,3.6-8.2,8.4c0,4.6,3.6,8.4,8.5,8.4c2.4,0,4.6-1,6.4-2.9L0.4,105.5z"/>
			<path fill="#FFFFFF" d="M40.5,89.9c-0.3,0-1.1,0-1.2,0c-2.8,0-5.4,1.9-6.5,4.6v14.2h-2.6V87.9h2.6v2.7c1-1.5,3.3-3.2,6.6-3.2
				c0.4,0,1.3,0,1.5,0.1L40.5,89.9z"/>
			<path fill="#FFFFFF" d="M61.9,105.3c-1.5,2-4.5,3.8-8.5,3.8c-5.8,0-10.4-4.4-10.4-10.8c0-6,4.1-10.8,9.9-10.8c5.6,0,9.7,4.4,9.7,10.2
				c0,0.2,0,0.5,0,0.9h-17c0.2,4.4,3.1,8.2,7.8,8.2c2.7,0,5-1.1,6.6-3.1L61.9,105.3z M45.8,96.1H60c-0.5-3.6-3.4-6.2-7-6.2
				C49.3,89.9,46.5,92.5,45.8,96.1z"/>
			<path fill="#FFFFFF" d="M75.4,107.1c-2.7-1.9-4.4-5.1-4.4-8.9c0-3.5,1.5-6.5,3.9-8.5c1.7-1.4,4.1-2.3,6.6-2.3c2.9,0,5.6,1.1,7.5,3.2V78h2.6v30.6
				h-2.5v-3.1c-1.5,2.1-4.2,3.5-7.5,3.5C79.6,109.1,77.5,108.6,75.4,107.1z M89,94.1c-0.9-1.5-3.6-4.2-7.5-4.2c-1.7,0-3.6,0.6-5,1.8
				c-1.8,1.5-2.9,3.9-2.9,6.6c0,2.9,1.3,5.4,3.3,6.8c1.3,0.9,2.9,1.5,4.7,1.5c3.1,0,5.8-1.7,7.4-4.6V94.1z"/>
			<path fill="#FFFFFF" d="M99.1,90.8c1.7-2.2,4.4-3.4,7.3-3.4c3,0,5.7,1.2,7.4,3.5c1.1,1.5,1.8,3.2,1.8,6.6v11.1H113V97.7c0-2.7-0.5-4.1-1.2-5.1
				c-1.2-1.7-3.1-2.8-5.4-2.8c-3,0-5.6,1.6-7.2,4.3v14.4h-2.6V87.9h2.5C99.1,87.9,99.1,90.8,99.1,90.8z"/>
			<path fill="#FFFFFF" d="M137.8,108.6v-3.1c-1.5,2.1-4.2,3.5-7.5,3.5c-2,0-4.1-0.5-6.2-2c-2.7-1.9-4.4-5.1-4.4-8.9c0-3.5,1.5-6.5,3.9-8.5
				c1.7-1.4,4.1-2.3,6.6-2.3c3,0,5.7,1.2,7.6,3.3v-2.7h2.5v20.8L137.8,108.6L137.8,108.6z M137.7,94.1c-0.9-1.5-3.6-4.2-7.5-4.2
				c-1.7,0-3.6,0.6-5,1.8c-1.8,1.5-2.9,3.9-2.9,6.6c0,2.9,1.3,5.4,3.3,6.8c1.3,0.9,2.9,1.5,4.7,1.5c3.1,0,5.8-1.7,7.4-4.6V94.1z"/>
		</g>
	</g>
</g>
</svg>
